<svg id="Capa_1" enable-background="new 0 0 512 512" height="512" viewBox="0 0 512 512" width="512" xmlns="http://www.w3.org/2000/svg"><path d="m174.834 475.143-15.91 15.91c-2.929 2.929-7.678 2.929-10.607 0s-2.929-7.677 0-10.607l15.91-15.91c2.929-2.929 7.678-2.929 10.607 0s2.929 7.678 0 10.607z" fill="#ffba48"/><path d="m206.038 443.939-9.991 9.991c-2.929 2.929-7.678 2.929-10.607 0s-2.929-7.677 0-10.607l9.991-9.991c2.929-2.929 7.678-2.929 10.607 0s2.929 7.678 0 10.607z" fill="#ffba48"/><path d="m17.197 466.053-9.991-9.991c-2.929-2.929-2.929-7.678 0-10.607s7.677-2.929 10.607 0l9.991 9.991c2.929 2.929 2.929 7.678 0 10.607s-7.678 2.929-10.607 0z" fill="#ffba48"/><path d="m474.5 48.75-227 82.5v254.5h25.365c2.841 0 5.438-1.605 6.708-4.146l27.927-55.854 7.5-20 7.5 20h22.5c4.142 0 7.5-3.358 7.5-7.5v-22.5l40.652-40.652c2.528-2.528 2.92-6.489.937-9.464l-26.589-39.884 32-52c12.427 0 22.5-10.074 22.5-22.5l79.027-50.29c2.163-1.377 3.473-3.763 3.473-6.327v-18.383c0-4.142-3.358-7.5-7.5-7.5z" fill="#ff9a42"/><g fill="#ffba48"><path d="m367.5 250.75-30-45 32-52c12.427 0 22.5-10.074 22.5-22.5l82.5-52.5v-30h-45c-8.284 0-15 6.716-15 15l-90-15c0-16.569-13.431-30-30-30h-201.023c-5.188-8.964-14.874-15-25.977-15-16.569 0-30 13.431-30 30h-7.5c-12.426 0-22.5 10.074-22.5 22.5v30c0 4.142 3.358 7.5 7.5 7.5h60c0 12.426 10.074 22.5 22.5 22.5l-15 112h-27.999c-5.641 0-9.399 6.068-6.64 10.988 3.852 6.869 11.203 11.512 19.639 11.512v15c0 8.284 6.716 15 15 15v49.023c-9.067 5.247-15.138 15.097-14.998 26.36.206 16.517 14.074 29.617 30.592 29.617h29.406l30 30c16.569 0 30-13.431 30-30h60l30-60h45v-30z"/><path d="m427.5 230.75 22.5 22.5c12.426 0 22.5-10.074 22.5-22.5v-22.5z"/><circle cx="442.5" cy="318.241" r="7.5"/><circle cx="7.5" cy="500.75" r="7.5"/><circle cx="48.621" cy="485.75" r="7.5"/><path d="m442.794 288.553-9.991 9.991c-2.929 2.929-7.678 2.929-10.607 0s-2.929-7.677 0-10.607l9.991-9.991c2.929-2.929 7.678-2.929 10.607 0s2.929 7.678 0 10.607z"/><path d="m499.196 198.553-10.607-10.607c-2.929-2.929-2.929-7.678 0-10.607s7.677-2.929 10.607 0l10.607 10.607c2.929 2.929 2.929 7.678 0 10.607s-7.677 2.929-10.607 0z"/><path d="m123.307 463.25h-37.186c-4.142 0-7.5 3.358-7.5 7.5v14.576c0 8.077 6.207 15.027 14.275 15.407 8.614.406 15.725-6.458 15.725-14.983v-7.5h15c4.219 0 7.624-3.483 7.497-7.731-.124-4.105-3.705-7.269-7.811-7.269z"/></g></svg>