<svg id="Capa_1" enable-background="new 0 0 512 512" height="512" viewBox="0 0 512 512" width="512" xmlns="http://www.w3.org/2000/svg"><g><path d="m28.101 321 55.51 64.762c.071.083.148.157.22.238h28.602l36.441-12.147 8.098 12.147 118.028 6 193.209-6 8.504-10.629c4.775-5.968 4.298-14.573-1.106-19.977l-22.831-22.831c-3.08-3.08-4.619-7.254-4.339-11.563l-10.437-21 42-44v-35.611l18.809-29.389-4.809-30.506 18-34.494v-40c0-8.284-6.716-15-15-15h-42c-5.383 0-10.353 2.884-13.023 7.558l-27.11 47.442 3.133 30h-52l13.156-30-10.228-25.571c-1.364-3.411-3.933-6.203-7.219-7.846l-60-30c-2.084-1.041-4.38-1.583-6.709-1.583h-39l-65.29 65-89.29 65-89.29 65 28.87 32.027z" fill="#f0faff"/><path d="m497 71h-42c-5.383 0-10.353 2.884-13.023 7.558l-27.11 47.442 3.133 30h-52l13.156-30-10.228-25.571c-1.364-3.411-3.933-6.203-7.219-7.846l-60-30c-2.084-1.041-4.38-1.583-6.709-1.583h-39v330.034l19 .966 193.209-6 8.504-10.629c4.775-5.968 4.298-14.573-1.106-19.977l-22.831-22.831c-3.08-3.08-4.619-7.254-4.339-11.563l-10.437-21 42-44v-35.611l18.809-29.389-4.809-30.506 18-34.494v-40c0-8.284-6.716-15-15-15z" fill="#dcf0ff"/><g fill="#ff785a"><path d="m448.495 320.124c.568-4.616 3.182-8.637 7.17-11.03l17.052-10.231c4.518-2.712 7.283-7.594 7.283-12.863v-30h-467.869l2.308 15 5.735 37.281c.426 2.766 1.616 5.357 3.437 7.481l4.49 5.238h420.336c.019-.292.022-.583.058-.876z"/><path d="m162.519 394.32c3.517 5.275 9.969 7.769 16.119 6.232l26.524-6.631 15.608 46.822c2.041 6.126 7.773 10.257 14.23 10.257h40c3.978 0 7.793-1.581 10.606-4.394l55.607-55.606h37.573l35.607 35.606c3.017 3.017 7.174 4.605 11.436 4.371 4.26-.236 8.218-2.275 10.883-5.606l31.497-39.371h-311.237z"/><path d="m509.634 174.086c1.545-2.414 2.366-5.22 2.366-8.086v-40h-97.133l-8.571 15h-21.14l-6-15h-188.446l-89.29 65h397.388z"/></g><path d="m406.295 141h-21.14l-6-15h-123.155v65h242.809l10.825-16.914c1.545-2.414 2.366-5.22 2.366-8.086v-40h-97.133z" fill="#f0321e"/><path d="m256 321h192.437c.019-.292.022-.583.058-.876.568-4.616 3.182-8.637 7.17-11.03l17.052-10.231c4.518-2.712 7.283-7.594 7.283-12.863v-30h-224z" fill="#f0321e"/><path d="m256 451h19c3.978 0 7.793-1.581 10.606-4.394l55.607-55.606h37.573l35.607 35.606c3.017 3.017 7.174 4.605 11.436 4.371 4.26-.236 8.218-2.275 10.883-5.606l31.497-39.371h-212.209z" fill="#f0321e"/><path d="m256 61h-221c-7.15 0-13.307 5.047-14.708 12.058l-20 100c-.344 1.721-.384 3.488-.117 5.223l11.956 77.719h243.869z" fill="#6ea0ff"/><g fill="#f0faff"><circle cx="75" cy="128.5" r="15"/><circle cx="135" cy="128.5" r="15"/><circle cx="75" cy="188.5" r="15"/><circle cx="135" cy="188.5" r="15"/><circle cx="195" cy="128.5" r="15"/><circle cx="195" cy="188.5" r="15"/></g></g></svg>